<?xml version="1.0" encoding="UTF-8" standalone="no"?>
<!DOCTYPE svg PUBLIC "-//W3C//DTD SVG 1.1//EN" "http://www.w3.org/Graphics/SVG/1.1/DTD/svg11.dtd">
<svg width="100%" height="100%" viewBox="0 0 3000 3000" version="1.1" xmlns="http://www.w3.org/2000/svg" xmlns:xlink="http://www.w3.org/1999/xlink" xml:space="preserve" xmlns:serif="http://www.serif.com/" style="fill-rule:evenodd;clip-rule:evenodd;">
    <g transform="matrix(4.20284,0,0,4.20284,-2706.47,-1655.33)">
        <path id="p11tsxqtcA" d="M1047.7,1050.2C1029.4,1022.8 1011.3,995.7 1007.5,989.8L1000.5,979.2L987,978.6C866.9,972.5 763.6,893.5 726.4,779.3C709.9,728.6 707.8,673.6 720.5,622C728.2,590.8 739.7,563.4 756.3,536.7C795.4,474 859.8,427.5 932.5,409.6C971.3,400 1014.6,398.9 1055.4,406.6C1096.7,414.3 1138.6,432.7 1172.4,457.9C1196.4,475.9 1214.1,493.5 1231.8,517C1264.6,560.4 1284.8,613.8 1288.9,668C1289.8,679.8 1289.5,709.2 1288.4,719C1284.3,754.9 1275.3,786.1 1259.9,817.5C1247.3,843.1 1228.7,869.8 1209.6,889.7C1203.2,896.4 1201.4,897.8 1200.4,896.7C1198.8,895 1142,810.1 1142,809.4C1142,809.1 1143.1,807.6 1144.5,806.2C1145.9,804.7 1150.5,798.4 1154.6,792.1C1213.8,703.1 1185.8,584.2 1092.8,530.1C1062,512.1 1021.7,502.9 987.8,505.9C920.2,512 864.1,550 835,609.5C825.6,628.6 820.1,647.7 817.4,670.5C815.6,685.4 815.6,695.2 817.4,710C820.3,734.3 825.5,751.5 836.4,773.5C858.2,817 896.1,849.6 943.3,865.4C964.1,872.4 976.3,874.2 1001,874.3C1019.5,874.3 1022.8,874 1035,871.5C1042.4,870 1049.6,868.6 1051,868.3C1053.3,867.9 1055.6,871.1 1081.6,910.2C1097.1,933.4 1131.9,985.4 1158.9,1025.6C1185.9,1065.9 1208,1099.1 1208,1099.4C1208,1099.7 1179.4,1100 1144.5,1100L1081,1100L1047.7,1050.2" style="fill:white;stroke:white;stroke-width:0.1px;"/>
        <path id="pLn39YnpA" d="M994.7,791.4C970.2,788.4 954.2,782 937.5,768.7C915.2,751 901.6,724.3 900.3,695.5C898.8,664.7 909.3,638.2 931.6,616.8C965.7,584 1019.2,579.9 1058.4,607C1073.2,617.2 1088,635.6 1094.6,651.9C1101.8,669.8 1103.9,691.7 1100,709.8C1094.8,734.4 1082.4,754.7 1063.6,769.3C1054.4,776.5 1040.9,783.7 1031,786.7C1020,790.1 1002.2,792.4 994.7,791.4" style="fill:white;stroke:white;stroke-width:0.1px;"/>
    </g>
</svg>
